<svg width="16" height="16" viewBox="0 0 16 16" fill="none" xmlns="http://www.w3.org/2000/svg">
<path d="M8.6 5.33333C8.6 5.00196 8.33137 4.73333 8 4.73333C7.66863 4.73333 7.4 5.00196 7.4 5.33333H8.6ZM8 8H7.4C7.4 8.15913 7.46321 8.31174 7.57574 8.42426L8 8ZM8.90907 9.7576C9.14338 9.99191 9.52328 9.99191 9.7576 9.7576C9.99191 9.52328 9.99191 9.14338 9.7576 8.90907L8.90907 9.7576ZM7.4 5.33333V8H8.6V5.33333H7.4ZM7.57574 8.42426L8.90907 9.7576L9.7576 8.90907L8.42426 7.57574L7.57574 8.42426ZM13.4 8C13.4 10.9823 10.9823 13.4 8 13.4V14.6C11.6451 14.6 14.6 11.6451 14.6 8H13.4ZM8 13.4C5.01766 13.4 2.6 10.9823 2.6 8H1.4C1.4 11.6451 4.35492 14.6 8 14.6V13.4ZM2.6 8C2.6 5.01766 5.01766 2.6 8 2.6V1.4C4.35492 1.4 1.4 4.35492 1.4 8H2.6ZM8 2.6C10.9823 2.6 13.4 5.01766 13.4 8H14.6C14.6 4.35492 11.6451 1.4 8 1.4V2.6Z" fill="#056ECF"/>
</svg>
