<svg width="61" height="32" viewBox="0 0 61 32" fill="none" xmlns="http://www.w3.org/2000/svg">
<rect x="1" y="1" width="59" height="24" rx="12" fill="white"/>
<path d="M14.9004 17V10.2676H14.7949L12.7207 11.6973V10.0508L14.9062 8.54492H16.6699V17H14.9004ZM23.8477 17H22.1719V10.5371H23.8477V14.5098H23.9531L26.5312 10.5371H28.207V17H26.5312V12.9805H26.4258L23.8477 17ZM32.5605 17.1406C32.1895 17.1406 31.8438 17.0996 31.5234 17.0176C31.2031 16.9355 30.9082 16.8105 30.6387 16.6426C30.3691 16.4746 30.1484 16.2461 29.9766 15.957C29.8086 15.668 29.709 15.3301 29.6777 14.9434H31.3184C31.3809 15.2207 31.5195 15.4277 31.7344 15.5645C31.9531 15.6973 32.2285 15.7637 32.5605 15.7637C32.9082 15.7637 33.1836 15.6973 33.3867 15.5645C33.5898 15.4277 33.6914 15.2363 33.6914 14.9902C33.6914 14.5059 33.3164 14.2637 32.5664 14.2637H31.6582V13.1152H32.5195C33.1758 13.1152 33.5039 12.8887 33.5039 12.4355C33.5039 12.2285 33.4199 12.0605 33.252 11.9316C33.0879 11.7988 32.8438 11.7324 32.5195 11.7324C32.207 11.7324 31.9512 11.7988 31.752 11.9316C31.5566 12.0645 31.4395 12.252 31.4004 12.4941H29.7891C29.8516 11.8496 30.1191 11.3398 30.5918 10.9648C31.0684 10.5859 31.709 10.3965 32.5137 10.3965C33.3574 10.3965 34.0098 10.5586 34.4707 10.8828C34.9355 11.2031 35.168 11.6543 35.168 12.2363C35.168 12.5566 35.0781 12.8301 34.8984 13.0566C34.7188 13.2832 34.4805 13.4375 34.1836 13.5195V13.625C34.582 13.7266 34.8828 13.9043 35.0859 14.1582C35.293 14.4082 35.3965 14.709 35.3965 15.0605C35.3965 15.6934 35.1426 16.1992 34.6348 16.5781C34.1309 16.9531 33.4395 17.1406 32.5605 17.1406ZM42.0469 13.332V12.0137H43.0781C43.4805 12.0137 43.8047 11.9062 44.0508 11.6914C44.3008 11.4766 44.4258 11.1973 44.4258 10.8535C44.4258 10.5137 44.3027 10.2441 44.0566 10.0449C43.8145 9.8418 43.4863 9.74023 43.0723 9.74023C42.6621 9.74023 42.3301 9.84766 42.0762 10.0625C41.8223 10.2773 41.6836 10.5684 41.6602 10.9355H40.0254C40.0566 10.1348 40.3496 9.5 40.9043 9.03125C41.459 8.5625 42.1973 8.32812 43.1191 8.32812C43.9863 8.32812 44.6992 8.54297 45.2578 8.97266C45.8203 9.39844 46.1016 9.94336 46.1016 10.6074C46.1016 11.0957 45.959 11.5156 45.6738 11.8672C45.3926 12.2188 45.0156 12.4434 44.543 12.541V12.6465C45.125 12.7129 45.584 12.9277 45.9199 13.291C46.2598 13.6504 46.4297 14.1074 46.4297 14.6621C46.4297 15.1504 46.2871 15.5898 46.002 15.9805C45.7207 16.3672 45.3262 16.6699 44.8184 16.8887C44.3105 17.1074 43.7402 17.2168 43.1074 17.2168C42.166 17.2168 41.4004 16.9766 40.8105 16.4961C40.2207 16.0156 39.9062 15.377 39.8672 14.5801H41.5605C41.5879 14.9395 41.7422 15.2246 42.0234 15.4355C42.3047 15.6426 42.6719 15.7461 43.125 15.7461C43.5664 15.7461 43.9258 15.6328 44.2031 15.4062C44.4844 15.1797 44.625 14.8867 44.625 14.5273C44.625 14.1562 44.4883 13.8652 44.2148 13.6543C43.9414 13.4395 43.5684 13.332 43.0957 13.332H42.0469Z" fill="#056ECF"/>
<path d="M30.1233 30.2451L35.7142 23.2565C35.7417 23.2221 35.7485 23.1957 35.7504 23.1757C35.7526 23.1514 35.7482 23.1208 35.7332 23.0895C35.7181 23.0582 35.6969 23.0356 35.6766 23.0222C35.6599 23.0112 35.635 23 35.5909 23H30H24.4091C24.365 23 24.3401 23.0112 24.3234 23.0222C24.3031 23.0356 24.2819 23.0582 24.2668 23.0895C24.2518 23.1208 24.2474 23.1514 24.2496 23.1757C24.2515 23.1957 24.2583 23.2221 24.2858 23.2565L29.8767 30.2451C29.9399 30.3241 30.0601 30.3241 30.1233 30.2451Z" fill="white" stroke="#056ECF" stroke-width="2"/>
<rect x="22" y="20" width="16" height="4" fill="white"/>
<rect x="1" y="1" width="59" height="24" rx="12" stroke="#056ECF" stroke-width="2"/>
</svg>
