<svg width="61" height="32" viewBox="0 0 61 32" fill="none" xmlns="http://www.w3.org/2000/svg">
<rect x="1" y="1" width="59" height="24" rx="12" fill="white"/>
<path d="M29.8767 30.2451C29.9399 30.3241 30.0601 30.3241 30.1233 30.2451L35.7142 23.2565C35.7417 23.2221 35.7485 23.1957 35.7504 23.1757C35.7526 23.1514 35.7482 23.1208 35.7332 23.0895C35.7181 23.0582 35.6969 23.0356 35.6766 23.0222C35.6599 23.0112 35.635 23 35.5909 23H30H24.4091C24.365 23 24.3401 23.0112 24.3234 23.0222C24.3031 23.0356 24.2819 23.0582 24.2668 23.0895C24.2518 23.1208 24.2474 23.1514 24.2496 23.1757C24.2515 23.1957 24.2583 23.2221 24.2858 23.2565L29.8767 30.2451Z" fill="white" stroke="#056ECF" stroke-width="2"/>
<rect x="22" y="20" width="16" height="4" fill="white"/>
<rect x="1" y="1" width="59" height="24" rx="12" stroke="#056ECF" stroke-width="2"/>
</svg>
