<svg width="16" height="12" viewBox="0 0 16 12" fill="none" xmlns="http://www.w3.org/2000/svg">
<path d="M8.12329 10.2451L13.7142 3.25653C13.7417 3.22206 13.7485 3.19568 13.7504 3.17573C13.7526 3.15145 13.7482 3.12084 13.7332 3.0895C13.7181 3.05815 13.6969 3.03562 13.6766 3.0222C13.6599 3.01117 13.635 3 13.5909 3H8H2.40914C2.36501 3 2.34015 3.01117 2.32342 3.0222C2.30307 3.03562 2.2819 3.05815 2.26683 3.0895C2.25177 3.12084 2.2474 3.15145 2.24963 3.17573C2.25147 3.19568 2.25828 3.22206 2.28585 3.25653L7.8767 10.2451C7.93991 10.3241 8.06009 10.3241 8.12329 10.2451Z" fill="white" stroke="#056ECF" stroke-width="2"/>
<rect width="16" height="4" fill="white"/>
</svg>
