<!--
Add to HTML Code
<svg>
    <use xlink:href="/img/sprites.svg#icon-list"></use>
</svg>
-->
<svg>
    <symbol id="icon-location" viewBox="0 0 16 16" fill="none" xmlns="http://www.w3.org/2000/svg">
        <path d="M8.00014 14.694C4.65402 11.3235 2.98096 8.53605 2.98096 6.33168C2.98096 3.55967 5.22812 1.3125 8.00014 1.3125C10.7721 1.3125 13.0193 3.55967 13.0193 6.33168C13.0193 8.53605 11.3463 11.3235 8.00014 14.694ZM4.18096 6.33168C4.18096 7.96551 5.4328 10.2063 8.00014 12.9637C10.5675 10.2063 11.8193 7.96551 11.8193 6.33168C11.8193 4.22241 10.1094 2.5125 8.00014 2.5125C5.89086 2.5125 4.18096 4.22241 4.18096 6.33168Z" fill="currentColor"/>
        <circle cx="7.98217" cy="6.17406" r="1.86156" fill="currentColor"/>
    </symbol>
    <symbol id="icon-user" viewBox="0 0 24 24" fill="none" xmlns="http://www.w3.org/2000/svg">
        <path fill-rule="evenodd" clip-rule="evenodd" d="M22 20.947C22 21.5286 21.5261 22 20.9445 22C20.3629 22 19.889 21.5286 19.889 20.947C19.8887 20.2556 19.752 19.571 19.4867 18.9325C19.2214 18.294 18.8328 17.7141 18.343 17.226C17.353 16.239 16.011 15.684 14.611 15.684H10.389C8.98994 15.6838 7.64786 16.2383 6.657 17.226C5.667 18.213 5.111 19.552 5.111 20.947C5.111 21.5286 4.63706 22 4.0555 22C3.47394 22 3 21.5286 3 20.947C3.00036 19.9788 3.19179 19.0203 3.5633 18.1262C3.93482 17.2322 4.47911 16.4203 5.165 15.737C6.55245 14.3545 8.43138 13.5785 10.39 13.579H14.611C16.5696 13.5785 18.4486 14.3545 19.836 15.737C20.5217 16.4204 21.0658 17.2323 21.4372 18.1264C21.8085 19.0204 21.9998 19.9789 22 20.947Z" fill="currentColor"/>
        <path fill-rule="evenodd" clip-rule="evenodd" d="M12.5 2C11.4566 1.99992 10.4364 2.30853 9.568 2.887C8.91876 3.3176 8.37349 3.88729 7.97173 4.55477C7.56997 5.22224 7.3218 5.97076 7.24521 6.74605C7.16862 7.52133 7.26553 8.30394 7.52892 9.03713C7.7923 9.77031 8.21556 10.4357 8.768 10.985C9.50697 11.7219 10.4476 12.2234 11.4713 12.4263C12.495 12.6292 13.5558 12.5243 14.52 12.125C15.4835 11.7272 16.3075 11.0528 16.888 10.187C17.566 9.1751 17.8713 7.95902 17.7517 6.74686C17.632 5.53469 17.0948 4.40179 16.232 3.542C15.2411 2.55429 13.8991 1.99976 12.5 2ZM10.7422 9.88837C11.2628 10.2353 11.8744 10.4206 12.5 10.421C13.339 10.421 14.145 10.088 14.739 9.496C15.333 8.903 15.667 8.101 15.667 7.263C15.664 6.63798 15.4764 6.02778 15.1276 5.50911C14.7788 4.99044 14.2845 4.58645 13.7068 4.34792C13.1291 4.1094 12.4937 4.04698 11.8806 4.16852C11.2675 4.29005 10.704 4.59012 10.261 5.031C9.81833 5.47167 9.51666 6.034 9.39434 6.64652C9.27201 7.25904 9.33455 7.8941 9.574 8.471C9.81514 9.04829 10.2216 9.54142 10.7422 9.88837Z" fill="currentColor"/>
    </symbol>
    <symbol id="arrow-menu" viewBox="0 0 8 14" fill="none" xmlns="http://www.w3.org/2000/svg">
        <path d="M1 13L7 7L1 1" stroke="currentColor" stroke-width="2" stroke-linecap="round" stroke-linejoin="round"/>
    </symbol>
    <symbol id="icon-clock" viewBox="0 0 18 18" fill="none" xmlns="http://www.w3.org/2000/svg">
        <path d="M9.75 5.66667C9.75 5.25245 9.41421 4.91667 9 4.91667C8.58579 4.91667 8.25 5.25245 8.25 5.66667H9.75ZM9 9H8.25C8.25 9.19891 8.32902 9.38968 8.46967 9.53033L9 9ZM10.1363 11.197C10.4292 11.4899 10.9041 11.4899 11.197 11.197C11.4899 10.9041 11.4899 10.4292 11.197 10.1363L10.1363 11.197ZM8.25 5.66667V9H9.75V5.66667H8.25ZM8.46967 9.53033L10.1363 11.197L11.197 10.1363L9.53033 8.46967L8.46967 9.53033ZM15.75 9C15.75 12.7279 12.7279 15.75 9 15.75V17.25C13.5563 17.25 17.25 13.5563 17.25 9H15.75ZM9 15.75C5.27208 15.75 2.25 12.7279 2.25 9H0.75C0.75 13.5563 4.44365 17.25 9 17.25V15.75ZM2.25 9C2.25 5.27208 5.27208 2.25 9 2.25V0.75C4.44365 0.75 0.75 4.44365 0.75 9H2.25ZM9 2.25C12.7279 2.25 15.75 5.27208 15.75 9H17.25C17.25 4.44365 13.5563 0.75 9 0.75V2.25Z" fill="currentColor"/>
    </symbol>
    <symbol id="icon-phone" viewBox="0 0 16 16" fill="none" xmlns="http://www.w3.org/2000/svg">
        <path d="M13.9996 10.9844L13.3998 10.9695C13.3997 10.9745 13.3996 10.9795 13.3996 10.9844H13.9996ZM13.9996 12.791H13.3996L13.3996 12.7934L13.9996 12.791ZM3.20541 2.00006V1.40006L3.20484 1.40006L3.20541 2.00006ZM5.0155 2.00006V2.60009L5.02139 2.60003L5.0155 2.00006ZM5.81421 2.29123L5.42343 2.74652L5.42343 2.74652L5.81421 2.29123ZM5.6068 6.76323L5.18295 6.33854C4.99148 6.52963 4.95156 6.82521 5.08547 7.06025L5.6068 6.76323ZM9.22698 10.3763L8.93085 10.8981C9.1654 11.0312 9.45994 10.9914 9.65083 10.8009L9.22698 10.3763ZM13.7139 10.176L14.1713 9.78771L14.1713 9.78771L13.7139 10.176ZM6.69521 5.40285L7.28196 5.52824L6.69521 5.40285ZM10.5901 9.28999L10.715 9.87685L10.5901 9.28999ZM12.6843 13.9953L12.7382 13.3977C12.7201 13.3961 12.7019 13.3953 12.6838 13.3953L12.6843 13.9953ZM2.00471 3.31279L2.60471 3.31326C2.60472 3.29504 2.60391 3.27683 2.60227 3.25868L2.00471 3.31279ZM13.3996 10.9844V12.791H14.5996V10.9844H13.3996ZM3.20541 2.60006H5.0155V1.40006H3.20541V2.60006ZM5.02139 2.60003C5.16896 2.59858 5.31184 2.65074 5.42343 2.74652L6.20499 1.83593C5.87254 1.55059 5.44767 1.39578 5.00961 1.40009L5.02139 2.60003ZM5.08547 7.06025C5.99792 8.66175 7.32647 9.98761 8.93085 10.8981L9.52312 9.85442C8.10639 9.05045 6.93352 7.87983 6.12812 6.46621L5.08547 7.06025ZM13.2565 10.5643C13.3526 10.6775 13.4035 10.8217 13.3998 10.9695L14.5994 10.9994C14.6104 10.5566 14.458 10.1254 14.1713 9.78771L13.2565 10.5643ZM5.42343 2.74652C5.48994 2.80361 5.59007 2.93469 5.69887 3.16212C5.80303 3.37982 5.89612 3.64558 5.9693 3.92704C6.1231 4.51868 6.15688 5.05084 6.10846 5.27747L7.28196 5.52824C7.38974 5.02386 7.29863 4.2711 7.13069 3.62511C7.04299 3.28776 6.926 2.94654 6.78137 2.64424C6.64141 2.35167 6.45408 2.04973 6.20499 1.83593L5.42343 2.74652ZM10.715 9.87685C10.9433 9.82826 11.4794 9.86235 12.0738 10.0168C12.3568 10.0903 12.6237 10.1839 12.8419 10.2885C13.0701 10.3979 13.2005 10.4983 13.2565 10.5643L14.1713 9.78771C13.9576 9.53596 13.6542 9.34718 13.3607 9.20645C13.0573 9.06098 12.7145 8.94345 12.3756 8.85539C11.7265 8.68671 10.9704 8.59559 10.4651 8.70314L10.715 9.87685ZM9.65083 10.8009C9.76064 10.6913 9.87102 10.5689 9.96677 10.4645C10.0676 10.3546 10.1593 10.2566 10.2521 10.1692C10.4426 9.98976 10.5881 9.90384 10.715 9.87685L10.4651 8.70314C10.0201 8.79786 9.67968 9.05989 9.4294 9.29558C9.30182 9.41573 9.18444 9.5421 9.08234 9.65343C8.9752 9.77027 8.88889 9.86598 8.80314 9.95157L9.65083 10.8009ZM6.10846 5.27747C6.08157 5.40327 5.99584 5.54822 5.81596 5.73846C5.72838 5.83109 5.63022 5.92262 5.52007 6.02323C5.41545 6.11879 5.29277 6.22895 5.18295 6.33854L6.03064 7.18791C6.11639 7.10233 6.2123 7.01619 6.32937 6.90926C6.44092 6.80737 6.56754 6.69021 6.68793 6.56289C6.92398 6.31322 7.18688 5.97316 7.28196 5.52824L6.10846 5.27747ZM12.6838 13.3953C6.99964 13.3997 2.60026 8.96043 2.60471 3.31326L1.40471 3.31232C1.39974 9.61956 6.3337 14.6003 12.6847 14.5953L12.6838 13.3953ZM13.3996 12.7934C13.401 13.1318 13.0818 13.4287 12.7382 13.3977L12.6304 14.5929C13.6812 14.6877 14.6038 13.8313 14.5996 12.7885L13.3996 12.7934ZM2.60227 3.25868C2.57162 2.92018 2.86484 2.60038 3.20597 2.60006L3.20484 1.40006C2.16659 1.40103 1.31222 2.31841 1.40715 3.3669L2.60227 3.25868Z" fill="currentColor"/>
    </symbol>
    <symbol id="icon-catalog" viewBox="0 0 24 24" fill="none" xmlns="http://www.w3.org/2000/svg">
        <path d="M1.51609 3.24076C1.09821 3.29476 0.785367 3.65062 0.785367 4.072V18.498C0.785367 19.015 1.23966 19.4142 1.75237 19.3479L1.7346 19.2106L1.75264 19.3479C4.7495 18.954 8.60878 19.43 11.6066 20.7223L11.6466 20.7422L11.6483 20.7431L11.9212 20.8837L11.9215 20.8839C11.9716 20.9097 12.0311 20.9094 12.081 20.8832L12.3607 20.7359L12.3641 20.7344C15.3746 19.4337 19.247 18.9538 22.2489 19.3477L22.2668 19.2109L22.2491 19.3477C22.7618 19.4141 23.2161 19.0148 23.2161 18.4978V4.06753C23.2161 3.64861 22.9053 3.29476 22.4899 3.24077C19.2864 2.82049 15.2232 3.29514 12.0027 4.61372L12.0024 4.61382L12.0009 4.61444C8.78403 3.29528 4.72003 2.8203 1.51609 3.24076ZM1.51609 3.24076C1.51615 3.24075 1.5162 3.24074 1.51625 3.24074L1.53397 3.37806L1.51595 3.24077C1.516 3.24077 1.51605 3.24076 1.51609 3.24076ZM2.48357 17.6868V4.72282C5.12421 4.50817 8.52306 4.94259 11.1541 5.98931V18.8286C8.96723 18.037 6.73369 17.6372 4.50754 17.6372C4.06078 17.6372 3.03417 17.6526 2.48357 17.6868ZM12.8521 18.8291V5.98917C15.4834 4.94244 18.8823 4.50831 21.5226 4.72282V17.6858C18.8805 17.491 15.5065 17.8814 12.8521 18.8291Z" fill="currentColor" stroke="currentColor" stroke-width="0.276923"/>
    </symbol>
    <symbol id="icon-trash" viewBox="0 0 15 16" fill="none" xmlns="http://www.w3.org/2000/svg">
        <path d="M5.48604 0.796887C5.34828 0.796199 5.21583 0.850211 5.1183 0.947112C5.02066 1.0439 4.96614 1.17554 4.9666 1.31269V2.85989H1.31521C1.17884 2.86024 1.048 2.91414 0.951398 3.01001C0.854797 3.10599 0.800385 3.23592 0.799809 3.37168C0.799233 3.50815 0.853298 3.63911 0.950014 3.73589C1.04673 3.83266 1.17815 3.88714 1.31521 3.88737H2.37138V14.681C2.3708 14.8173 2.42475 14.9482 2.52112 15.0449C2.61761 15.1416 2.7488 15.1963 2.88573 15.1969H12.2139C12.351 15.1965 12.4824 15.1421 12.579 15.0453C12.6758 14.9485 12.7298 14.8175 12.7293 14.6811V3.88739H13.7854C13.9224 3.88694 14.0534 3.83224 14.1499 3.73556C14.2464 3.63878 14.3004 3.50793 14.2998 3.37168C14.2992 3.23614 14.2449 3.10621 14.1486 3.01045C14.0522 2.91458 13.9217 2.86045 13.7854 2.85988H10.1329V1.31268C10.1333 1.17575 10.0789 1.04422 9.98149 0.947447C9.8842 0.850545 9.75198 0.79642 9.61435 0.796878L5.48604 0.796887ZM6.00053 1.82438H9.10037V2.85989H6.00053V1.82438ZM3.40416 3.88738H11.6956L11.6957 14.1685H3.40428L3.40416 3.88738ZM6.00053 5.93938C5.86428 5.93995 5.73378 5.99396 5.6374 6.08983C5.54103 6.1857 5.48662 6.31563 5.48604 6.45118V11.5854C5.48639 11.7212 5.54057 11.8514 5.63706 11.9473C5.73343 12.0434 5.86404 12.0977 6.00051 12.0982C6.13769 12.0987 6.26934 12.045 6.36663 11.9488C6.46391 11.8526 6.51868 11.7219 6.51902 11.5854V6.45118C6.51845 6.31483 6.46346 6.18444 6.36628 6.08847C6.2691 5.99249 6.13746 5.93894 6.00049 5.9394L6.00053 5.93938ZM9.10037 5.93938C8.96319 5.93857 8.83131 5.99213 8.7339 6.08811C8.63649 6.18409 8.58139 6.31471 8.58093 6.45117V11.5854C8.58116 11.7221 8.63603 11.8529 8.73355 11.9492C8.83108 12.0454 8.96307 12.0991 9.10037 12.0982C9.23675 12.0977 9.36747 12.0434 9.46383 11.9473C9.5602 11.8514 9.6145 11.7212 9.61473 11.5854V6.45118C9.61427 6.31563 9.55986 6.18571 9.46349 6.08983C9.36712 5.99396 9.23662 5.93995 9.10035 5.93937L9.10037 5.93938Z" fill="currentColor"/>
    </symbol>
    <symbol id="icon-cart" viewBox="0 0 24 24" fill="none" xmlns="http://www.w3.org/2000/svg">
        <path fill-rule="evenodd" clip-rule="evenodd" d="M6 4.5L5.5 3.09799C5.38779 2.74778 5.09704 1.99263 4.83169 1.77368C4.5 1.5 4.29539 1.5 3.68178 1.5H2.49953C2.23342 1.5 1.97883 1.59942 1.79161 1.77546C1.6045 1.95138 1.5 2.18932 1.5 2.43672C1.5 2.68413 1.6045 2.92206 1.79161 3.09799C1.97883 3.27402 2.23342 3.37345 2.49953 3.37345H3.72067L6.59664 12.932C6.71176 13.3683 6.95222 13.8781 7.2609 14.35C7.56976 14.8222 7.94227 15.2493 8.31695 15.5245C8.68305 15.7934 9.16825 15.9134 9.63229 15.9646C10.0038 16.0055 10.3512 16.0015 10.6038 15.9986C10.6664 15.9979 10.7232 15.9973 10.773 15.9974H16.5305C17.5033 16.0005 18.4483 15.6923 19.2095 15.1239C19.9707 14.5556 20.503 13.7612 20.7196 12.8717L20.7207 12.8675L21.8142 7.64919L21.8531 7.49214C21.967 6.97123 22.1692 5.88523 22.1198 5.48277C22.1163 5.46056 22.1123 5.43866 22.1079 5.41708C22.0534 5.15004 21.9324 4.93475 21.7164 4.77962C21.4985 4.62303 21.1729 4.51983 20.6942 4.5H6ZM18.813 12.3131C18.6874 12.6721 18.4753 13.107 18.1681 13.4607C17.8606 13.8148 17.4503 14.0954 16.9304 14.1236L16.7663 14.1239H12.5733H10.773C10.2694 14.1239 9.83969 14.1065 9.47094 13.8837C9.10023 13.6598 8.80957 13.2409 8.54164 12.4875L8.54026 12.4833L6.59664 6.36131L18.8939 6.37345H20.0825L18.9042 12.0089L18.813 12.3131Z" fill="currentColor"/>
        <circle cx="9.86332" cy="20.1368" r="1.86332" fill="currentColor"/>
        <circle cx="17.0899" cy="20.1368" r="1.86332" fill="currentColor"/>
    </symbol>
    <symbol id="icon-close" viewBox="0 0 14 14" fill="none" xmlns="http://www.w3.org/2000/svg">
        <path fill-rule="evenodd" clip-rule="evenodd" d="M8.74962 7.00005L13.6008 2.14886C14.1114 1.63828 14.135 0.827127 13.6533 0.346734C13.1729 -0.134972 12.3618 -0.111346 11.8512 0.399236L6.99999 5.25042L2.14881 0.397923C1.63823 -0.111346 0.827072 -0.134972 0.346679 0.345421C-0.135027 0.825814 -0.111401 1.63697 0.399181 2.14755L5.25037 7.00005L0.397869 11.8512C-0.112713 12.3618 -0.136339 13.173 0.345367 13.6534C0.82576 14.1351 1.63692 14.1114 2.1475 13.6009L6.99999 8.74968L11.8512 13.6009C12.3618 14.1114 13.1729 14.1351 13.6533 13.6534C14.135 13.173 14.1114 12.3618 13.6008 11.8512L8.74962 7.00005Z" fill="currentColor"/>
    </symbol>
    <symbol id="icon-search" viewBox="0 0 17 17" fill="none" xmlns="http://www.w3.org/2000/svg">
        <path d="M15.101 16.2324C15.4134 16.5448 15.9199 16.5448 16.2324 16.2324C16.5448 15.9199 16.5448 15.4134 16.2324 15.101L15.101 16.2324ZM12.7351 11.6037C12.4227 11.2913 11.9162 11.2913 11.6037 11.6037C11.2913 11.9162 11.2913 12.4227 11.6037 12.7351L12.7351 11.6037ZM7.75 13.2C4.74005 13.2 2.3 10.76 2.3 7.75H0.7C0.7 11.6436 3.85639 14.8 7.75 14.8V13.2ZM2.3 7.75C2.3 4.74005 4.74005 2.3 7.75 2.3V0.7C3.85639 0.7 0.7 3.85639 0.7 7.75H2.3ZM7.75 2.3C10.76 2.3 13.2 4.74005 13.2 7.75H14.8C14.8 3.85639 11.6436 0.7 7.75 0.7V2.3ZM13.2 7.75C13.2 10.76 10.76 13.2 7.75 13.2V14.8C11.6436 14.8 14.8 11.6436 14.8 7.75H13.2ZM16.2324 15.101L12.7351 11.6037L11.6037 12.7351L15.101 16.2324L16.2324 15.101Z" fill="currentColor"/>
    </symbol>
    <symbol id="icon-star" viewBox="0 0 16 15" fill="none" xmlns="http://www.w3.org/2000/svg">
        <path d="M7.55163 0.908492C7.73504 0.536869 8.26496 0.53687 8.44837 0.908493L10.2348 4.52821C10.3076 4.67578 10.4484 4.77807 10.6113 4.80173L14.6059 5.38218C15.016 5.44177 15.1797 5.94576 14.883 6.23503L11.9925 9.05258C11.8746 9.16745 11.8208 9.33295 11.8487 9.49515L12.531 13.4736C12.6011 13.8821 12.1724 14.1935 11.8055 14.0007L8.23267 12.1223C8.08701 12.0457 7.91299 12.0457 7.76733 12.1223L4.19445 14.0007C3.82764 14.1935 3.39892 13.8821 3.46898 13.4736L4.15134 9.49515C4.17916 9.33295 4.12538 9.16745 4.00754 9.05258L1.11702 6.23503C0.820263 5.94576 0.984019 5.44177 1.39413 5.38218L5.38873 4.80173C5.55158 4.77807 5.69236 4.67578 5.76519 4.52821L7.55163 0.908492Z" fill="currentColor"/>
    </symbol>
    <symbol id="icon-star-half" viewBox="0 0 10 20" fill="none" xmlns="http://www.w3.org/2000/svg">
        <g clip-path="url(#clip0_7674_62557)">
            <path fill-rule="evenodd" clip-rule="evenodd" d="M10 0.629761C9.82166 0.629755 9.64332 0.722661 9.55162 0.908478L7.17739 5.71918C7.10456 5.86675 6.96378 5.96904 6.80093 5.9927L1.492 6.76413C1.08189 6.82372 0.918136 7.32771 1.21489 7.61698L5.05647 11.3616C5.17431 11.4765 5.22809 11.642 5.20027 11.8042L4.29339 17.0916C4.22334 17.5001 4.65206 17.8116 5.01887 17.6187L9.76731 15.1223C9.84015 15.084 9.92008 15.0649 10 15.0649V0.629761Z" fill="currentColor"/>
            <path d="M12.8226 5.71918L10.4484 0.908478C10.3567 0.722672 10.1783 0.629766 10 0.629761V15.0649C10.0799 15.0649 10.1598 15.084 10.2327 15.1223L14.9811 17.6187C15.3479 17.8116 15.7766 17.5001 15.7066 17.0916L14.7997 11.8042C14.7719 11.642 14.8257 11.4765 14.9435 11.3616L18.7851 7.61698C19.0818 7.32771 18.9181 6.82372 18.508 6.76413L13.199 5.9927C13.0362 5.96904 12.8954 5.86675 12.8226 5.71918Z" fill="currentColor"/>
        </g>
        <defs>
            <clipPath id="clip0_7674_62557">
                <rect width="10" height="20" fill="white"/>
            </clipPath>
        </defs>
    </symbol>
    <symbol id="icon-heart" viewBox="0 0 18 16" fill="none" xmlns="http://www.w3.org/2000/svg">
        <path fill-rule="evenodd" clip-rule="evenodd" d="M8.87175 1.898L8.76603 1.81126C7.68678 0.925726 6.53166 0.476562 5.31295 0.476562C2.7681 0.476562 0.705078 2.53957 0.705078 5.08442C0.705078 8.60367 3.30553 12.0626 8.504 15.4995L8.87159 15.7426L9.23925 15.4995C14.4378 12.0626 17.0384 8.60367 17.0384 5.08442C17.0384 2.53956 14.9754 0.476562 12.4306 0.476562C11.2118 0.476562 10.0567 0.925727 8.97746 1.81126L8.87175 1.898ZM8.87175 3.74382L9.34116 3.27847C10.3327 2.2954 11.3547 1.8099 12.4306 1.8099C14.239 1.8099 15.7051 3.27594 15.7051 5.08442C15.7051 8.00414 13.4544 11.0135 8.96562 14.0772L8.87166 14.1413L8.77771 14.0772C4.28899 11.0135 2.03841 8.00414 2.03841 5.08442C2.03841 3.27595 3.50447 1.8099 5.31295 1.8099C6.38882 1.8099 7.41083 2.2954 8.40242 3.27848L8.87175 3.74382Z" fill="currentColor"/>
        <path d="M9.34116 3.27847L8.87175 3.74382L8.40242 3.27848C7.41083 2.2954 6.38882 1.8099 5.31295 1.8099C3.50447 1.8099 2.03841 3.27595 2.03841 5.08442C2.03841 8.00414 4.28899 11.0135 8.77771 14.0772L8.87166 14.1413L8.96562 14.0772C13.4544 11.0135 15.7051 8.00414 15.7051 5.08442C15.7051 3.27594 14.239 1.8099 12.4306 1.8099C11.3547 1.8099 10.3327 2.2954 9.34116 3.27847Z" fill="currentColor"/>
    </symbol>
    <symbol id="icon-document" viewBox="0 0 20 20" fill="none" xmlns="http://www.w3.org/2000/svg">
        <path d="M3.83301 18H3.16634C3.16634 18.3682 3.46482 18.6667 3.83301 18.6667V18ZM17.1663 18V18.6667C17.5345 18.6667 17.833 18.3682 17.833 18H17.1663ZM3.83301 2V1.33333C3.46482 1.33333 3.16634 1.63181 3.16634 2H3.83301ZM12.8373 2L13.3149 1.53484C13.1894 1.406 13.0172 1.33333 12.8373 1.33333V2ZM17.1663 6.44444H17.833C17.833 6.27067 17.7652 6.10377 17.6439 5.97928L17.1663 6.44444ZM3.83301 18.6667H17.1663V17.3333H3.83301V18.6667ZM3.16634 2V18H4.49967V2H3.16634ZM11.9715 1.33333H3.83301V2.66667H11.9715V1.33333ZM17.833 18V7.33333H16.4997V18H17.833ZM11.9715 2.66667H12.8373V1.33333H11.9715V2.66667ZM17.833 7.33333V6.44444H16.4997V7.33333H17.833ZM17.6439 5.97928L13.3149 1.53484L12.3598 2.46516L16.6888 6.90961L17.6439 5.97928ZM11.3049 2V5.55556H12.6382V2H11.3049ZM11.3049 5.55556C11.3049 6.21069 11.6176 6.81435 12.0351 7.24294C12.4515 7.67043 13.0471 8 13.7031 8V6.66667C13.4933 6.66667 13.2232 6.55179 12.9902 6.31262C12.7583 6.07454 12.6382 5.78931 12.6382 5.55556H11.3049ZM13.7031 8H17.1663V6.66667H13.7031V8Z" fill="currentColor"/>
        <path d="M5.58398 11.0075H5.52254V11.069V14.7531V14.8145H5.58398H6.40659H6.46804V14.7531V13.6707H7.1829C7.61083 13.6707 7.96419 13.5504 8.23723 13.3052C8.51104 13.0594 8.64713 12.7366 8.64713 12.343C8.64713 11.9467 8.51527 11.6224 8.24892 11.3763C7.98496 11.129 7.64124 11.0075 7.22375 11.0075H5.58398ZM9.00822 11.005H8.94677V11.0664V14.7531V14.8145H9.00822H10.5554C11.1551 14.8145 11.6267 14.6494 11.961 14.3112C12.297 13.9714 12.4609 13.4926 12.4609 12.8842C12.4609 12.2955 12.2957 11.8311 11.9577 11.5C11.6217 11.1674 11.1513 11.005 10.5554 11.005H9.00822ZM11.2168 12.0768L11.2169 12.077C11.4024 12.2666 11.499 12.537 11.499 12.897C11.499 13.2751 11.4036 13.5547 11.2219 13.7456C11.0405 13.9344 10.7779 14.0329 10.4246 14.0329H9.89227V11.7865H10.4246C10.7701 11.7865 11.0313 11.8856 11.2168 12.0768ZM13.6636 14.8145H13.7251V14.7531V13.3797H15.2626H15.324V13.3182V12.6876V12.6262H15.2626H13.7251V11.7891H15.4151H15.4765V11.7277V11.069V11.0075H15.4151H12.841H12.7796V11.069V14.7531V14.8145H12.841H13.6636ZM6.46804 12.9223V11.7636H7.00585C7.23488 11.7636 7.40201 11.8168 7.51605 11.9147C7.6284 12.0111 7.68802 12.1514 7.68802 12.3455C7.68802 12.5374 7.6278 12.6769 7.51365 12.7735C7.3996 12.8698 7.23234 12.9223 7.00312 12.9223H6.46804Z" fill="currentColor" stroke="currentColor" stroke-width="0.122889"/>
    </symbol>
    <symbol id="icon-warning" viewBox="0 0 20 20" fill="none" xmlns="http://www.w3.org/2000/svg">
        <path d="M9.06858 1.51808C9.49123 0.81365 10.5121 0.813652 10.9348 1.51808L18.8065 14.6376C19.2417 15.3629 18.7193 16.2857 17.8734 16.2857H2.12996C1.28411 16.2857 0.761658 15.3629 1.19684 14.6376L9.06858 1.51808Z" fill="currentColor"/>
        <path d="M9.96094 13.6152V13.623M9.96094 5.88477V11.3015" stroke="white" stroke-width="1.63228" stroke-linecap="round" stroke-linejoin="round"/>
    </symbol>
    <symbol id="icon-grid" viewBox="0 0 20 20" fill="none" xmlns="http://www.w3.org/2000/svg">
        <path d="M3 3.33333C3 3.14924 3.14924 3 3.33333 3H8.66667C8.85076 3 9 3.14924 9 3.33333V8.66667C9 8.85076 8.85076 9 8.66667 9H3.33333C3.14924 9 3 8.85076 3 8.66667V3.33333Z" fill="currentColor"/>
        <path d="M11 3.33333C11 3.14924 11.1492 3 11.3333 3H16.6667C16.8508 3 17 3.14924 17 3.33333V8.66667C17 8.85076 16.8508 9 16.6667 9H11.3333C11.1492 9 11 8.85076 11 8.66667V3.33333Z" fill="currentColor"/>
        <path d="M3 11.3333C3 11.1492 3.14924 11 3.33333 11H8.66667C8.85076 11 9 11.1492 9 11.3333V16.6667C9 16.8508 8.85076 17 8.66667 17H3.33333C3.14924 17 3 16.8508 3 16.6667V11.3333Z" fill="currentColor"/>
        <path d="M11 11.3333C11 11.1492 11.1492 11 11.3333 11H16.6667C16.8508 11 17 11.1492 17 11.3333V16.6667C17 16.8508 16.8508 17 16.6667 17H11.3333C11.1492 17 11 16.8508 11 16.6667V11.3333Z" fill="currentColor"/>
    </symbol>
    <symbol id="icon-grid-horizontal" viewBox="0 0 20 20" fill="none" xmlns="http://www.w3.org/2000/svg">
        <path d="M3.33333 6.23077C3.14924 6.23077 3 6.08153 3 5.89744V3.33333C3 3.14924 3.14924 3 3.33333 3H16.6667C16.8508 3 17 3.14924 17 3.33333V5.89744C17 6.08153 16.8508 6.23077 16.6667 6.23077H3.33333Z" fill="currentColor"/>
        <path d="M3.33333 11.6154C3.14924 11.6154 3 11.4547 3 11.2564V8.74359C3 8.54533 3.14924 8.38462 3.33333 8.38462H16.6667C16.8508 8.38462 17 8.54533 17 8.74359V11.2564C17 11.4547 16.8508 11.6154 16.6667 11.6154H3.33333Z" fill="currentColor"/>
        <path d="M3.33333 17C3.14924 17 3 16.8393 3 16.641V14.1282C3 13.9299 3.14924 13.7692 3.33333 13.7692H16.6667C16.8508 13.7692 17 13.9299 17 14.1282V16.641C17 16.8393 16.8508 17 16.6667 17H3.33333Z" fill="currentColor"/>
    </symbol>
    <symbol id="icon-filter" viewBox="0 0 24 24" fill="none" xmlns="http://www.w3.org/2000/svg">
        <path d="M2.65218 6.16725H5.16521C5.34358 6.68971 5.72675 7.11253 6.22246 7.33393C6.7182 7.55536 7.28186 7.55536 7.77761 7.33393C8.27335 7.11251 8.65653 6.68971 8.83487 6.16725H21.3478C21.7081 6.16725 22 5.86858 22 5.5C22 5.13142 21.7081 4.83275 21.3478 4.83275H8.83487C8.65649 4.31029 8.27332 3.88747 7.77761 3.66607C7.28188 3.44464 6.71822 3.44464 6.22246 3.66607C5.72672 3.88749 5.34354 4.31029 5.16521 4.83275H2.65218C2.29193 4.83275 2 5.13142 2 5.5C2 5.86858 2.29193 6.16725 2.65218 6.16725ZM7.00006 4.83275C7.26385 4.83275 7.50163 4.99539 7.60255 5.24462C7.70348 5.49404 7.64778 5.78101 7.46125 5.97186C7.27471 6.1627 6.99424 6.21969 6.75043 6.11643C6.50683 6.01317 6.34786 5.7699 6.34786 5.50002C6.34786 5.13144 6.63979 4.83277 7.00004 4.83277L7.00006 4.83275Z" fill="currentColor"/>
        <path d="M2.65219 19.1672H9.51296C9.69134 19.6897 10.0745 20.1125 10.5702 20.3339C11.066 20.5554 11.6296 20.5554 12.1254 20.3339C12.6211 20.1125 13.0043 19.6897 13.1827 19.1672H21.3478C21.7081 19.1672 22 18.8686 22 18.5C22 18.1314 21.7081 17.8328 21.3478 17.8328H13.1827C13.0043 17.3103 12.6211 16.8875 12.1254 16.6661C11.6297 16.4446 11.066 16.4446 10.5702 16.6661C10.0745 16.8875 9.6913 17.3103 9.51296 17.8328H2.65219C2.29193 17.8328 2 18.1314 2 18.5C2 18.8686 2.29193 19.1672 2.65219 19.1672ZM11.348 17.8328C11.6118 17.8328 11.8496 17.9954 11.9505 18.2446C12.0515 18.494 11.9958 18.781 11.8092 18.9719C11.6227 19.1627 11.3422 19.2197 11.0984 19.1164C10.8548 19.0132 10.6958 18.7699 10.6958 18.5C10.6958 18.1314 10.9878 17.8328 11.348 17.8328L11.348 17.8328Z" fill="currentColor"/>
        <path d="M2.65218 12.1672H15.1651C15.3435 12.6897 15.7267 13.1125 16.2224 13.3339C16.7181 13.5554 17.2818 13.5554 17.7775 13.3339C18.2733 13.1125 18.6565 12.6897 18.8348 12.1672H21.3478C21.7081 12.1672 22 11.8686 22 11.5C22 11.1314 21.7081 10.8328 21.3478 10.8328H18.8348C18.6564 10.3103 18.2732 9.88747 17.7775 9.66607C17.2818 9.44464 16.7181 9.44464 16.2224 9.66607C15.7267 9.88749 15.3435 10.3103 15.1651 10.8328H2.65218C2.29193 10.8328 2 11.1314 2 11.5C2 11.8686 2.29193 12.1672 2.65218 12.1672ZM17.0002 10.8328C17.264 10.8328 17.5018 10.9954 17.6027 11.2446C17.7036 11.494 17.6479 11.781 17.4614 11.9719C17.2748 12.1627 16.9944 12.2197 16.7506 12.1164C16.507 12.0132 16.348 11.7699 16.348 11.5C16.348 11.1314 16.6399 10.8328 17.0002 10.8328L17.0002 10.8328Z" fill="currentColor"/>
    </symbol>
    <symbol id="icon-check" viewBox="0 0 14 14" fill="none" xmlns="http://www.w3.org/2000/svg">
        <path d="M12.7072 4.20711C13.0977 3.81658 13.0977 3.18342 12.7072 2.79289C12.3166 2.40237 11.6835 2.40237 11.293 2.79289L12.7072 4.20711ZM5.00004 10.5L4.29294 11.2071C4.68346 11.5977 5.31662 11.5976 5.70715 11.2071L5.00004 10.5ZM2.7071 6.79289C2.31658 6.40237 1.68341 6.40237 1.29289 6.7929C0.902368 7.18342 0.90237 7.81659 1.2929 8.20711L2.7071 6.79289ZM11.293 2.79289L4.29293 9.79291L5.70715 11.2071L12.7072 4.20711L11.293 2.79289ZM1.2929 8.20711L4.29294 11.2071L5.70715 9.79291L2.7071 6.79289L1.2929 8.20711Z" fill="currentColor"/>
    </symbol>
    <symbol id="icon-password-close" viewBox="0 0 18 18" fill="none" xmlns="http://www.w3.org/2000/svg">
        <g>
            <path fill-rule="evenodd" clip-rule="evenodd" d="M9.05184 11.4335C8.35538 11.4335 7.75462 11.1925 7.24956 10.7103C6.74449 10.2281 6.49196 9.6521 6.49196 8.98215C6.49196 8.3122 6.74449 7.73869 7.24956 7.26161C7.75462 6.77945 8.35538 6.53837 9.05184 6.53837C9.74829 6.53837 10.3304 6.77691 10.7983 7.254C11.2715 7.72601 11.508 8.30205 11.508 8.98215C11.508 9.66225 11.2741 10.2408 10.8063 10.7179C10.3384 11.195 9.75361 11.4335 9.05184 11.4335ZM3.1107 8.9517C3.1107 9.54044 3.38183 10.0353 3.92411 10.4362C7.21502 13.1668 10.5989 13.1668 14.0759 10.4362C14.5491 9.98453 14.7803 9.50238 14.7697 8.98977C14.7697 8.67002 14.6155 8.34012 14.3072 8.00007C14.2008 7.88841 14.044 7.73362 13.8366 7.53568C12.1992 6.24146 10.5192 5.62735 8.79665 5.69333C7.48347 5.74408 6.17564 6.1704 4.8731 6.97231C4.5488 7.17533 4.23247 7.40118 3.92411 7.64987C3.72209 7.84274 3.57589 7.98738 3.48551 8.08382C3.23563 8.36296 3.1107 8.65225 3.1107 8.9517ZM1.125 8.93648C1.125 8.08381 1.43601 7.35804 2.05804 6.75915V6.7287C2.07399 6.67287 2.11386 6.64495 2.17766 6.64495C4.26704 4.54882 6.46537 3.46017 8.77272 3.37897C10.2454 3.32821 11.742 3.76469 13.2625 4.68841C14.0918 5.19594 14.9052 5.84812 15.7027 6.64495C16.0589 6.93425 16.3434 7.28698 16.556 7.70317C16.7687 8.11935 16.875 8.54821 16.875 8.98977C16.875 9.81705 16.5241 10.6316 15.8223 11.4335C14.2221 12.8851 12.6351 13.8494 11.0615 14.3265C10.4554 14.5041 9.78019 14.6031 9.03589 14.6234C8.29158 14.6386 7.56057 14.5447 6.84285 14.3417C6.11449 14.1387 5.33564 13.7733 4.50627 13.2454C3.67689 12.7176 2.86083 12.0401 2.05804 11.2128V11.1062C1.43601 10.5124 1.125 9.78914 1.125 8.93648Z" fill="currentColor"/>
        </g>
    </symbol>
    <symbol id="icon-password-open" viewBox="0 0 18 18" fill="none" xmlns="http://www.w3.org/2000/svg">
        <g>
            <path fill-rule="evenodd" clip-rule="evenodd" d="M11.3885 9.00385C11.3885 9.51154 11.2343 9.97051 10.926 10.3808C10.6176 10.791 10.2269 11.0808 9.75371 11.25L10.2242 12.3731C11.5533 12.1167 12.7973 11.4808 13.9563 10.4654C14.4986 10.1526 14.7697 9.68334 14.7697 9.05769C14.7697 8.43205 14.4986 7.96282 13.9563 7.65C13.414 7.16795 12.8505 6.78077 12.2657 6.48846C10.708 5.7141 9.21145 5.46282 7.77602 5.73462L8.1269 6.63462C8.28108 6.55769 8.55221 6.5218 8.9403 6.52692C9.63144 6.52692 10.2109 6.76795 10.6788 7.25C11.1466 7.73205 11.3832 8.31666 11.3885 9.00385ZM2.17787 11.3654C1.8323 11.0885 1.56915 10.7397 1.38839 10.3192C1.20763 9.89872 1.11991 9.46026 1.12523 9.00385C1.12523 8.10128 1.47611 7.31154 2.17787 6.63462C2.29483 6.52179 2.50748 6.33462 2.81584 6.07308C3.12419 5.81154 3.33684 5.62436 3.4538 5.51154L4.15556 7.53462C3.4538 8.04231 3.10558 8.53205 3.1109 9.00385C3.11621 9.26539 3.20393 9.54231 3.37406 9.83462C3.54418 10.1269 3.72759 10.3372 3.9243 10.4654C4.7005 11.0295 5.28263 11.4038 5.67073 11.5885L6.60376 14.2885C4.89719 13.6731 3.42191 12.6987 2.17787 11.3654ZM16.875 8.95C16.875 9.81154 16.564 10.5423 15.942 11.1423C14.4587 12.768 12.7867 13.8551 10.926 14.4038L11.3885 15.75H9.05992L8.9403 15.1885L4.38683 2.25H6.60376L7.07426 3.59615C8.29171 3.26282 9.45599 3.22436 10.5671 3.48077C12.497 3.93205 14.2088 4.94743 15.7027 6.52692C15.7825 6.52692 15.8224 6.56282 15.8224 6.63462L15.942 6.75C16.564 7.35513 16.875 8.08846 16.875 8.95Z" fill="currentColor"/>
        </g>
    </symbol>
    <symbol id="icon-edit" viewBox="0 0 18 18" fill="none" xmlns="http://www.w3.org/2000/svg">
        <g>
            <path d="M6.47894 15.6084L3.08249 15.75C2.62276 15.75 2.25 15.3772 2.25 14.9175L2.31652 11.4876L9.02618 4.82767L13.1389 8.89868L6.47894 15.6084ZM14.3378 7.73326L10.217 3.57083L11.1075 2.73834C11.4201 2.42578 11.8437 2.25 12.2856 2.25C12.7275 2.25 13.1512 2.42579 13.4638 2.73834L15.2202 4.50331C15.5327 4.81549 15.7085 5.23917 15.7085 5.68106C15.7085 6.12295 15.5327 6.547 15.2202 6.8592L14.3378 7.73326Z" fill="currentColor"/>
        </g>
    </symbol>

    <symbol id="icon-i" viewBox="0 0 18 18" fill="none" xmlns="http://www.w3.org/2000/svg">
        <g>
            <circle cx="9.00013" cy="9.00013" r="9.00013" fill="currentColor"/>
            <path d="M10.6708 3.41914C11.1207 3.70091 11.2572 4.2941 10.9754 4.74404C10.6937 5.19398 10.1005 5.33042 9.65052 5.04865C9.20049 4.76689 9.06413 4.1737 9.3459 3.72376C9.62767 3.27373 10.2209 3.13737 10.6708 3.41914Z" fill="white"/>
            <path d="M7.41121 7.46645L7.65114 7.45083H7.65105C7.84519 7.43816 8.03354 7.51983 8.15687 7.67024C8.28029 7.82065 8.32358 8.02134 8.27322 8.20918L6.92755 13.2316C6.67148 14.1873 7.77749 14.8139 9.23542 14.076C9.76858 13.8061 10.4859 13.2278 11.0517 12.6133V12.6133C11.103 12.558 11.1082 12.4743 11.0643 12.413C11.0204 12.3517 10.9395 12.3297 10.8706 12.3604C10.0467 12.7255 8.7804 13.1157 9.11262 11.8759L10.6219 6.24316L7.34432 6.46938C7.1664 6.48163 7.00849 6.58771 6.93 6.74777C6.85143 6.90793 6.86419 7.09776 6.96337 7.24591C7.06264 7.39408 7.23324 7.47809 7.41124 7.46644L7.41121 7.46645Z" fill="white"/>
        </g>
    </symbol>
    <symbol id="icon-mail" viewBox="0 0 20 20" fill="none" xmlns="http://www.w3.org/2000/svg">
        <path d="M8.82149 10.4882L9.35182 9.95787L9.35182 9.95787L8.82149 10.4882ZM11.1785 10.4882L10.6482 9.95787L10.6482 9.95787L11.1785 10.4882ZM3.33333 4.91675H16.6667V3.41675H3.33333V4.91675ZM16.75 5.00008V15.0001H18.25V5.00008H16.75ZM16.6667 15.0834H3.33333V16.5834H16.6667V15.0834ZM3.25 15.0001V5.00008H1.75V15.0001H3.25ZM3.33333 15.0834C3.28731 15.0834 3.25 15.0461 3.25 15.0001H1.75C1.75 15.8745 2.45888 16.5834 3.33333 16.5834V15.0834ZM16.75 15.0001C16.75 15.0461 16.7127 15.0834 16.6667 15.0834V16.5834C17.5411 16.5834 18.25 15.8745 18.25 15.0001H16.75ZM3.33333 3.41675C2.89632 3.41675 2.49945 3.59479 2.21375 3.8805L3.27441 4.94116C3.29031 4.92525 3.31011 4.91675 3.33333 4.91675V3.41675ZM2.21375 3.8805C1.92804 4.1662 1.75 4.56306 1.75 5.00008H3.25C3.25 4.97686 3.25851 4.95706 3.27441 4.94116L2.21375 3.8805ZM16.6667 4.91675C16.6899 4.91675 16.7097 4.92526 16.7256 4.94115L17.7863 3.8805C17.5005 3.59479 17.1037 3.41675 16.6667 3.41675V4.91675ZM16.7256 4.94115C16.7415 4.95706 16.75 4.97686 16.75 5.00008H18.25C18.25 4.56306 18.072 4.1662 17.7863 3.8805L16.7256 4.94115ZM8.29116 11.0185C9.23492 11.9623 10.7651 11.9623 11.7088 11.0185L10.6482 9.95787C10.2902 10.3158 9.7098 10.3158 9.35182 9.95787L8.29116 11.0185ZM2.21375 4.94116L8.29116 11.0185L9.35182 9.95787L3.27441 3.88049L2.21375 4.94116ZM11.7088 11.0185L17.7863 4.94116L16.7256 3.88049L10.6482 9.95787L11.7088 11.0185Z" fill="currentColor"/>
    </symbol>

    <symbol id="icon-kebab" viewBox="0 0 20 20" fill="none" xmlns="http://www.w3.org/2000/svg">
        <path fill-rule="evenodd" clip-rule="evenodd" d="M8.89063 15.25C8.89063 14.9516 9.00915 14.6655 9.22013 14.4545C9.43111 14.2435 9.71726 14.125 10.0156 14.125C10.314 14.125 10.6001 14.2435 10.8111 14.4545C11.0221 14.6655 11.1406 14.9516 11.1406 15.25C11.1406 15.5484 11.0221 15.8345 10.8111 16.0455C10.6001 16.2565 10.314 16.375 10.0156 16.375C9.71726 16.375 9.43111 16.2565 9.22013 16.0455C9.00915 15.8345 8.89063 15.5484 8.89063 15.25ZM10.0156 8.875C9.71726 8.875 9.43111 8.99353 9.22013 9.2045C9.00915 9.41548 8.89063 9.70163 8.89063 10C8.89063 10.2984 9.00915 10.5845 9.22013 10.7955C9.43111 11.0065 9.71726 11.125 10.0156 11.125C10.314 11.125 10.6001 11.0065 10.8111 10.7955C11.0221 10.5845 11.1406 10.2984 11.1406 10C11.1406 9.70163 11.0221 9.41548 10.8111 9.2045C10.6001 8.99353 10.314 8.875 10.0156 8.875ZM10.0156 3.625C9.71726 3.625 9.43111 3.74353 9.22013 3.9545C9.00915 4.16548 8.89063 4.45163 8.89063 4.75C8.89063 5.04837 9.00915 5.33452 9.22013 5.54549C9.43111 5.75647 9.71726 5.875 10.0156 5.875C10.314 5.875 10.6001 5.75647 10.8111 5.54549C11.0221 5.33452 11.1406 5.04837 11.1406 4.75C11.1406 4.45163 11.0221 4.16548 10.8111 3.9545C10.6001 3.74353 10.314 3.625 10.0156 3.625Z" fill="currentColor"/>
    </symbol>
    <symbol id="icon-photo" viewBox="0 0 36 36" fill="none" xmlns="http://www.w3.org/2000/svg">
        <path d="M33.6217 23.5785H29.3783V19.0855C29.3783 18.6694 29.0597 18.332 28.6667 18.332C28.2737 18.332 27.955 18.6694 27.955 19.0855V23.5785H23.7116C23.3186 23.5785 23 23.9159 23 24.332C23 24.7481 23.3186 25.0855 23.7116 25.0855H27.955V29.5785C27.955 29.9947 28.2737 30.332 28.6667 30.332C29.0597 30.332 29.3783 29.9946 29.3783 29.5785V25.0855H33.6217C34.0147 25.0855 34.3333 24.7481 34.3333 24.332C34.3333 23.9159 34.0147 23.5785 33.6217 23.5785Z" fill="currentColor"/>
        <path d="M25.2114 28.155H5.36714C4.15921 28.155 3.17638 27.1703 3.17638 25.96V12.2033C3.17638 10.993 4.15921 10.0083 5.36714 10.0083H9.34867C9.35649 10.0083 9.36381 10.0064 9.37163 10.0061C9.39873 10.0054 9.4251 10.0017 9.45196 9.99804C9.47516 9.99486 9.4986 9.99217 9.52107 9.98678C9.54451 9.98116 9.56697 9.97308 9.58968 9.9655C9.61337 9.95743 9.63705 9.95009 9.65952 9.93981C9.68125 9.93003 9.70152 9.91755 9.72227 9.90556C9.74327 9.89333 9.76476 9.88183 9.78454 9.86788C9.80456 9.85369 9.82263 9.8373 9.84119 9.82091C9.8595 9.80501 9.87806 9.7896 9.89466 9.77198C9.91053 9.7551 9.9247 9.73626 9.93935 9.71791C9.95595 9.69687 9.97231 9.67584 9.98672 9.65284C9.99087 9.64623 9.99648 9.64085 10.0004 9.634L11.023 7.88179C11.2757 7.44926 11.7431 7.18065 12.2429 7.18065H19.0914C19.5918 7.18065 20.0593 7.44952 20.3116 7.8823L21.3328 9.6335C21.3381 9.64279 21.3447 9.65062 21.3504 9.65967C21.3567 9.66971 21.3633 9.67925 21.3701 9.68879C21.3933 9.72157 21.418 9.75215 21.4453 9.78028C21.4478 9.78273 21.45 9.78567 21.4524 9.78811C21.4837 9.81918 21.5174 9.84658 21.553 9.87129C21.5611 9.87692 21.5694 9.88206 21.5777 9.88744C21.6094 9.90774 21.6421 9.9256 21.6761 9.94102C21.6829 9.94395 21.6893 9.94762 21.6961 9.95056C21.7357 9.96695 21.7764 9.97894 21.8177 9.98848C21.8285 9.99092 21.8394 9.99288 21.8504 9.99484C21.8949 10.0029 21.9398 10.0085 21.9852 10.0085H21.9867L25.966 10.0081C27.1742 10.0081 28.1568 10.9928 28.1568 12.203V15.3686C28.1568 15.7862 28.4947 16.1248 28.9115 16.1248C29.3283 16.1248 29.6663 15.7862 29.6663 15.3686L29.6665 12.2033C29.6665 10.159 28.0066 8.49566 25.966 8.49566H22.4179L21.6152 7.11923C21.0934 6.22406 20.1263 5.66797 19.0917 5.66797H12.2425C11.2087 5.66797 10.242 6.22332 9.71971 7.11773L8.9154 8.49559H5.36674C3.32638 8.49559 1.6665 10.159 1.6665 12.2032V25.9606C1.6665 28.0049 3.32644 29.668 5.36674 29.668H25.211C25.6278 29.668 25.9657 29.3294 25.9657 28.9118C25.9657 28.4942 25.6278 28.1553 25.211 28.1553L25.2114 28.155Z" fill="currentColor"/>
        <path d="M15.6667 12.3301C11.9905 12.3301 9 15.3209 9 18.9967C9 22.6726 11.9908 25.6634 15.6667 25.6634C19.3425 25.6634 22.3333 22.6726 22.3333 18.9967C22.3333 15.3209 19.3425 12.3301 15.6667 12.3301ZM15.6667 24.1387C12.8315 24.1387 10.525 21.8321 10.525 18.997C10.525 16.1619 12.8316 13.8555 15.6667 13.8555C18.5018 13.8555 20.8084 16.1622 20.8084 18.9972C20.8081 21.8321 18.5015 24.1387 15.6667 24.1387Z" fill="currentColor"/>
    </symbol>
    <symbol id="icon-menu-account-2" viewBox="0 0 24 24" fill="none" xmlns="http://www.w3.org/2000/svg">
        <path d="M12.0004 7.73372V12.0004L14.1337 14.1337M21.6004 12.0004C21.6004 17.3023 17.3023 21.6004 12.0004 21.6004C6.69846 21.6004 2.40039 17.3023 2.40039 12.0004C2.40039 6.69846 6.69846 2.40039 12.0004 2.40039C17.3023 2.40039 21.6004 6.69846 21.6004 12.0004Z" stroke="currentColor" stroke-width="2" stroke-linecap="round" stroke-linejoin="round"/>
    </symbol>
    <symbol id="icon-menu-account-3" xmlns="http://www.w3.org/2000/svg" viewBox="0 0 24 24" fill="none">
        <g clip-path="url(#clip0_7635_62576)">
            <path d="M2.7969 12.0572L11.9992 21.6004L21.2015 12.0572C22.2245 10.9964 22.7992 9.55754 22.7992 8.05725C22.7992 4.93305 20.357 2.40039 17.3444 2.40039C15.8977 2.40039 14.5102 2.99638 13.4873 4.05724L11.9992 5.60039L10.5112 4.05725C9.48821 2.99638 8.10075 2.40039 6.65404 2.40039C3.64143 2.40039 1.19922 4.93305 1.19922 8.05725C1.19922 9.55754 1.77392 10.9964 2.7969 12.0572Z" stroke="currentColor" stroke-width="2" stroke-linecap="round" stroke-linejoin="round"/>
        </g>
        <defs>
            <clipPath id="clip0_7635_62576">
                <rect width="24" height="24" fill="white" transform="matrix(-1 0 0 1 24 0)"/>
            </clipPath>
        </defs>
    </symbol>
    <symbol id="icon-menu-account-4" viewBox="0 0 24 24" fill="none" xmlns="http://www.w3.org/2000/svg">
        <path d="M7.20039 7.20039H16.8004M7.20039 12.0004H13.2004M6.00039 16.8004V22.8004L12.0004 16.8004H21.6004V2.40039H2.40039V16.8004H6.00039Z" stroke="currentColor" stroke-width="2" stroke-linecap="round" stroke-linejoin="round"/>
    </symbol>
    <symbol id="icon-plus" viewBox="0 0 16 16" fill="none" xmlns="http://www.w3.org/2000/svg">
        <path d="M12.4442 7.5836H8.41645V3.55583C8.41645 3.44532 8.37255 3.33934 8.29441 3.2612C8.21627 3.18306 8.11029 3.13916 7.99978 3.13916C7.88928 3.13916 7.7833 3.18306 7.70516 3.2612C7.62702 3.33934 7.58312 3.44532 7.58312 3.55583V7.5836H3.55534C3.44483 7.5836 3.33885 7.6275 3.26071 7.70564C3.18257 7.78378 3.13867 7.88976 3.13867 8.00027C3.13867 8.11078 3.18257 8.21676 3.26071 8.2949C3.33885 8.37304 3.44483 8.41694 3.55534 8.41694H7.58312V12.4447C7.58312 12.5552 7.62702 12.6612 7.70516 12.7393C7.7833 12.8175 7.88928 12.8614 7.99978 12.8614C8.11029 12.8614 8.21627 12.8175 8.29441 12.7393C8.37255 12.6612 8.41645 12.5552 8.41645 12.4447V8.41694H12.4442C12.5547 8.41694 12.6607 8.37304 12.7389 8.2949C12.817 8.21676 12.8609 8.11078 12.8609 8.00027C12.8609 7.88976 12.817 7.78378 12.7389 7.70564C12.6607 7.6275 12.5547 7.5836 12.4442 7.5836Z" fill="currentColor"/>
    </symbol>
    <symbol id="icon-minus" viewBox="0 0 16 16" fill="none" xmlns="http://www.w3.org/2000/svg">
        <path d="M12.4442 8.41683H3.55534C3.44483 8.41683 3.33885 8.37293 3.26071 8.29479C3.18257 8.21665 3.13867 8.11067 3.13867 8.00016C3.13867 7.88966 3.18257 7.78368 3.26071 7.70554C3.33885 7.62739 3.44483 7.5835 3.55534 7.5835H12.4442C12.5547 7.5835 12.6607 7.62739 12.7389 7.70554C12.817 7.78368 12.8609 7.88966 12.8609 8.00016C12.8609 8.11067 12.817 8.21665 12.7389 8.29479C12.6607 8.37293 12.5547 8.41683 12.4442 8.41683Z" fill="currentColor"/>
    </symbol>
    <symbol id="icon-list" viewBox="0 0 18 18" fill="none" xmlns="http://www.w3.org/2000/svg">
        <path d="M5 4.5H16M5 8.99439H16M5 13.4888H16M2 4.5V4.51123M2 8.99439V9.00561M2 13.4888V13.5" stroke="currentColor" stroke-width="1.4" stroke-linecap="round" stroke-linejoin="round"/>
    </symbol>  
    <symbol id="icon-slider" viewBox="0 0 24 24" fill="none" xmlns="http://www.w3.org/2000/svg">
        <path d="M12 10.25C12.4142 10.25 12.75 10.5858 12.75 11V16.25C12.75 16.6642 12.4142 17 12 17 11.5858 17 11.25 16.6642 11.25 16.25V11C11.25 10.5858 11.5858 10.25 12 10.25zM12 9C12.5523 9 13 8.55228 13 8 13 7.44772 12.5523 7 12 7 11.4477 7 11 7.44772 11 8 11 8.55228 11.4477 9 12 9z" fill="currentColor"/>
        <path fill-rule="evenodd" cliprule="evenodd" d="M12 22C17.5228 22 22 17.5228 22 12C22 6.47715 17.5228 2 12 2C6.47715 2 2 6.47715 2 12C2 17.5228 6.47715 22 12 22ZM12 20.5C16.6944 20.5 20.5 16.6944 20.5 12C20.5 7.30558 16.6944 3.5 12 3.5C7.30558 3.5 3.5 7.30558 3.5 12C3.5 16.6944 7.30558 20.5 12 20.5Z" fill="currentColor"/>
    </symbol>
</svg>