<svg width="109" height="26" viewBox="0 0 109 26" fill="none" xmlns="http://www.w3.org/2000/svg">
<path d="M4.67581 19.3599C3.60322 19.3599 2.72336 19.1923 2.03624 18.8571C1.34911 18.5052 0.837958 18.0443 0.502775 17.4745C0.167592 16.9047 0 16.2762 0 15.5891C0 14.4327 0.452497 13.4942 1.35749 12.7735C2.26249 12.0529 3.61998 11.6926 5.42997 11.6926H8.59745V11.3909C8.59745 10.5362 8.35444 9.90771 7.86842 9.50549C7.38241 9.10327 6.77908 8.90216 6.05844 8.90216C5.40483 8.90216 4.83502 9.06137 4.349 9.37979C3.86299 9.68146 3.56132 10.134 3.44401 10.7373H0.301665C0.385461 9.83229 0.687126 9.04461 1.20666 8.37425C1.74295 7.70388 2.43008 7.19272 3.26804 6.84078C4.10599 6.47208 5.04451 6.28773 6.08358 6.28773C7.86005 6.28773 9.25944 6.73185 10.2817 7.62008C11.3041 8.50832 11.8152 9.76526 11.8152 11.3909V19.0582H9.07508L8.77342 17.0471C8.40472 17.7175 7.88518 18.2705 7.21482 18.7063C6.56121 19.142 5.71487 19.3599 4.67581 19.3599ZM5.40483 16.846C6.32658 16.846 7.03885 16.5443 7.54162 15.941C8.06116 15.3377 8.38796 14.5919 8.52203 13.7037H5.78191C4.92719 13.7037 4.31548 13.8629 3.94678 14.1813C3.57808 14.483 3.39373 14.86 3.39373 15.3125C3.39373 15.7986 3.57808 16.1756 3.94678 16.4438C4.31548 16.7119 4.8015 16.846 5.40483 16.846Z" fill="#011930"/>
<path d="M13.8803 24.086V6.5894H16.7461L17.0981 8.37425C17.5003 7.82119 18.0282 7.33518 18.6818 6.9162C19.3522 6.49722 20.2153 6.28773 21.2711 6.28773C22.4442 6.28773 23.4917 6.57264 24.4134 7.14245C25.3352 7.71226 26.0642 8.49156 26.6005 9.48035C27.1368 10.4691 27.405 11.592 27.405 12.8489C27.405 14.1059 27.1368 15.2287 26.6005 16.2175C26.0642 17.1896 25.3352 17.9605 24.4134 18.5303C23.4917 19.0833 22.4442 19.3599 21.2711 19.3599C20.3326 19.3599 19.5114 19.1839 18.8075 18.832C18.1036 18.48 17.5338 17.9856 17.0981 17.3488V24.086H13.8803ZM20.5924 16.5443C21.6147 16.5443 22.461 16.2008 23.1314 15.5136C23.8017 14.8265 24.1369 13.9383 24.1369 12.8489C24.1369 11.7596 23.8017 10.863 23.1314 10.1591C22.461 9.45521 21.6147 9.10327 20.5924 9.10327C19.5533 9.10327 18.6986 9.45521 18.0282 10.1591C17.3746 10.8462 17.0478 11.7345 17.0478 12.8238C17.0478 13.9131 17.3746 14.8098 18.0282 15.5136C18.6986 16.2008 19.5533 16.5443 20.5924 16.5443Z" fill="#011930"/>
<path d="M44.0975 19.3599C42.8405 19.3599 41.7261 19.0917 40.754 18.5554C39.782 18.0191 39.0194 17.265 38.4664 16.2929C37.9133 15.3209 37.6368 14.1981 37.6368 12.9244C37.6368 11.6339 37.905 10.4859 38.4413 9.48035C38.9943 8.4748 39.7485 7.6955 40.7037 7.14245C41.6758 6.57264 42.8154 6.28773 44.1226 6.28773C45.346 6.28773 46.427 6.55588 47.3655 7.09217C48.304 7.62846 49.033 8.36587 49.5526 9.30438C50.0889 10.2261 50.357 11.2568 50.357 12.3964C50.357 12.5808 50.3486 12.7735 50.3319 12.9746C50.3319 13.1757 50.3235 13.3852 50.3067 13.6031H40.8294C40.8965 14.5751 41.2317 15.3377 41.835 15.8907C42.4551 16.4438 43.2009 16.7203 44.0723 16.7203C44.7259 16.7203 45.2706 16.5779 45.7063 16.2929C46.1588 15.9913 46.494 15.6058 46.7119 15.1366H49.9799C49.7453 15.9242 49.3515 16.6449 48.7984 17.2985C48.2621 17.9353 47.5918 18.4381 46.7873 18.8068C45.9996 19.1755 45.103 19.3599 44.0975 19.3599ZM44.1226 8.90216C43.3349 8.90216 42.6394 9.12841 42.0361 9.5809C41.4328 10.0166 41.0473 10.687 40.8797 11.592H47.089C47.0387 10.7708 46.737 10.1172 46.184 9.63118C45.6309 9.14517 44.9438 8.90216 44.1226 8.90216Z" fill="#011930"/>
<path d="M52.0578 19.0582V1.96397H55.2756V11.6423L59.7 6.5894H63.5211L58.4179 12.2708L64.3506 19.0582H60.3285L55.2756 12.7987V19.0582H52.0578Z" fill="#011930"/>
<path fill-rule="evenodd" clip-rule="evenodd" d="M31.1962 18.1029C31.9839 18.7398 33.0313 19.0582 34.3385 19.0582H36.5256V16.3181H34.967C34.3302 16.3181 33.8777 16.2092 33.6095 15.9913C33.3581 15.7567 33.2324 15.3377 33.2324 14.7343V9.27924H36.601V6.5894H33.2324V2.96397L30.0147 3.55548V6.5894H27.8779V9.27924H30.0147V14.7092C30.0147 16.3348 30.4085 17.4661 31.1962 18.1029Z" fill="#011930"/>
<path d="M77.7851 14.7142C78.489 14.7142 79.0622 14.9355 79.5046 15.3779C79.9672 15.8203 80.1985 16.3633 80.1985 17.0069C80.1985 17.6303 79.9672 18.1633 79.5046 18.6057C79.0622 19.0482 78.489 19.2694 77.7851 19.2694C77.2373 19.2694 76.7625 19.1354 76.3609 18.8673C76.2465 18.791 76.138 18.7038 76.0355 18.6057C75.7828 18.3531 75.6023 18.0709 75.494 17.7592C75.4125 17.5251 75.3718 17.2743 75.3718 17.0069C75.3718 16.8311 75.3883 16.6628 75.4213 16.502C75.5092 16.0742 75.7139 15.6995 76.0355 15.3779C76.138 15.2798 76.2465 15.1926 76.3609 15.1163C76.7625 14.8483 77.2373 14.7142 77.7851 14.7142Z" fill="#FF3C6B"/>
<path d="M89.2303 19.3599C88.2918 19.3599 87.4706 19.1839 86.7667 18.832C86.0629 18.48 85.4931 17.9856 85.0573 17.3488L84.7054 19.0582H81.8396L81.8394 1.96387H85.0571L85.0573 8.37425C85.4595 7.82119 85.9874 7.33518 86.6411 6.9162C87.3114 6.49722 88.1745 6.28773 89.2303 6.28773C90.4035 6.28773 91.4509 6.57264 92.3727 7.14245C93.2944 7.71226 94.0235 8.49156 94.5598 9.48035C95.0961 10.4691 95.3642 11.592 95.3642 12.8489C95.3642 14.1059 95.0961 15.2287 94.5598 16.2175C94.0235 17.1896 93.2944 17.9605 92.3727 18.5303C91.4509 19.0833 90.4035 19.3599 89.2303 19.3599ZM88.5516 16.5443C89.5739 16.5443 90.4202 16.2008 91.0906 15.5136C91.761 14.8265 92.0962 13.9383 92.0962 12.8489C92.0962 11.7596 91.761 10.863 91.0906 10.1591C90.4202 9.45521 89.5739 9.10327 88.5516 9.10327C87.5125 9.10327 86.6578 9.45521 85.9874 10.1591C85.3338 10.8462 85.007 11.7345 85.007 12.8238C85.007 13.9131 85.3338 14.8098 85.9874 15.5136C86.6578 16.2008 87.5125 16.5443 88.5516 16.5443Z" fill="#011930"/>
<path fill-rule="evenodd" clip-rule="evenodd" d="M100.553 18.2286L100.157 19.1001L97.8908 24.086H101.302L109 6.5894H105.581L101.936 15.3628L98.4417 6.5894H94.9474L99.7992 18.2286H100.553Z" fill="#011930"/>
<path fill-rule="evenodd" clip-rule="evenodd" d="M69.2215 19.3599C68.1489 19.3599 67.269 19.1923 66.5819 18.8571C65.8948 18.5052 65.3836 18.0443 65.0484 17.4745C64.7133 16.9047 64.5457 16.2762 64.5457 15.5891C64.5457 14.4327 64.9982 13.4942 65.9032 12.7735C66.8082 12.0529 68.1657 11.6926 69.9756 11.6926H73.1431V11.3909C73.1431 10.5362 72.9001 9.90771 72.4141 9.50549C71.9281 9.10327 71.3248 8.90216 70.6041 8.90216C69.9505 8.90216 69.3807 9.06137 68.8947 9.37979C68.4087 9.68146 68.107 10.134 67.9897 10.7373H64.8473C64.9311 9.83229 65.2328 9.04461 65.7523 8.37425C66.2886 7.70388 66.9758 7.19272 67.8137 6.84078C68.6517 6.47208 69.5902 6.28773 70.6292 6.28773C72.4057 6.28773 73.8051 6.73185 74.8274 7.62008C75.8497 8.50832 76.3609 9.76526 76.3609 11.3909V13.442C76.0016 13.5696 75.6618 13.75 75.3479 13.9862C75.3237 14.0043 75.2998 14.0228 75.2759 14.0416C75.179 14.1182 75.0845 14.2003 74.9929 14.2879C74.5472 14.7142 74.1696 15.5815 73.9948 15.9084C73.8954 16.0945 73.6268 16.5488 73.3208 17.0587C72.9521 17.7291 72.4309 18.2705 71.7605 18.7063C71.1069 19.142 70.2605 19.3599 69.2215 19.3599ZM72.0873 15.941C71.5845 16.5443 70.8723 16.846 69.9505 16.846C69.3472 16.846 68.8612 16.7119 68.4925 16.4438C68.1238 16.1756 67.9394 15.7986 67.9394 15.3125C67.9394 14.86 68.1238 14.483 68.4925 14.1813C68.8612 13.8629 69.4729 13.7037 70.3276 13.7037H73.0677C72.9336 14.5919 72.6068 15.3377 72.0873 15.941Z" fill="#011930"/>
<path d="M76.3609 13.442C76.0016 13.5696 75.6618 13.75 75.3479 13.9862C75.6875 13.7612 76.1251 13.577 76.3609 13.4945V13.442Z" fill="#011930"/>
<path d="M76.3609 13.4945C76.1251 13.577 75.6875 13.7612 75.3479 13.9862C75.3237 14.0043 75.2998 14.0228 75.2759 14.0416C75.6233 13.806 76.1081 13.626 76.3609 13.552V13.4945Z" fill="#011930"/>
<path d="M100.553 18.2286H99.7992L100.157 19.1001L100.553 18.2286Z" fill="#011930"/>
</svg>
