<svg width="16" height="16" viewBox="0 0 16 16" fill="none" xmlns="http://www.w3.org/2000/svg">
<path d="M13.9996 10.9844L13.3998 10.9695C13.3997 10.9745 13.3996 10.9795 13.3996 10.9844H13.9996ZM13.9996 12.791H13.3996L13.3996 12.7934L13.9996 12.791ZM3.20541 2.00006V1.40006L3.20484 1.40006L3.20541 2.00006ZM5.0155 2.00006V2.60009L5.02139 2.60003L5.0155 2.00006ZM5.81421 2.29123L5.42343 2.74652L5.42343 2.74652L5.81421 2.29123ZM5.6068 6.76323L5.18295 6.33854C4.99148 6.52963 4.95156 6.82521 5.08547 7.06025L5.6068 6.76323ZM9.22698 10.3763L8.93085 10.8981C9.1654 11.0312 9.45994 10.9914 9.65083 10.8009L9.22698 10.3763ZM13.7139 10.176L14.1713 9.78771L14.1713 9.78771L13.7139 10.176ZM6.69521 5.40285L7.28196 5.52824L6.69521 5.40285ZM10.5901 9.28999L10.715 9.87685L10.5901 9.28999ZM12.6843 13.9953L12.7382 13.3977C12.7201 13.3961 12.7019 13.3953 12.6838 13.3953L12.6843 13.9953ZM2.00471 3.31279L2.60471 3.31326C2.60472 3.29504 2.60391 3.27683 2.60227 3.25868L2.00471 3.31279ZM13.3996 10.9844V12.791H14.5996V10.9844H13.3996ZM3.20541 2.60006H5.0155V1.40006H3.20541V2.60006ZM5.02139 2.60003C5.16896 2.59858 5.31184 2.65074 5.42343 2.74652L6.20499 1.83593C5.87254 1.55059 5.44767 1.39578 5.00961 1.40009L5.02139 2.60003ZM5.08547 7.06025C5.99792 8.66175 7.32647 9.98761 8.93085 10.8981L9.52312 9.85442C8.10639 9.05045 6.93352 7.87983 6.12812 6.46621L5.08547 7.06025ZM13.2565 10.5643C13.3526 10.6775 13.4035 10.8217 13.3998 10.9695L14.5994 10.9994C14.6104 10.5566 14.458 10.1254 14.1713 9.78771L13.2565 10.5643ZM5.42343 2.74652C5.48994 2.80361 5.59007 2.93469 5.69887 3.16212C5.80303 3.37982 5.89612 3.64558 5.9693 3.92704C6.1231 4.51868 6.15688 5.05084 6.10846 5.27747L7.28196 5.52824C7.38974 5.02386 7.29863 4.2711 7.13069 3.62511C7.04299 3.28776 6.926 2.94654 6.78137 2.64424C6.64141 2.35167 6.45408 2.04973 6.20499 1.83593L5.42343 2.74652ZM10.715 9.87685C10.9433 9.82826 11.4794 9.86235 12.0738 10.0168C12.3568 10.0903 12.6237 10.1839 12.8419 10.2885C13.0701 10.3979 13.2005 10.4983 13.2565 10.5643L14.1713 9.78771C13.9576 9.53596 13.6542 9.34718 13.3607 9.20645C13.0573 9.06098 12.7145 8.94345 12.3756 8.85539C11.7265 8.68671 10.9704 8.59559 10.4651 8.70314L10.715 9.87685ZM9.65083 10.8009C9.76064 10.6913 9.87102 10.5689 9.96677 10.4645C10.0676 10.3546 10.1593 10.2566 10.2521 10.1692C10.4426 9.98976 10.5881 9.90384 10.715 9.87685L10.4651 8.70314C10.0201 8.79786 9.67968 9.05989 9.4294 9.29558C9.30182 9.41573 9.18444 9.5421 9.08234 9.65343C8.9752 9.77027 8.88889 9.86598 8.80314 9.95157L9.65083 10.8009ZM6.10846 5.27747C6.08157 5.40327 5.99584 5.54822 5.81596 5.73846C5.72838 5.83109 5.63022 5.92262 5.52007 6.02323C5.41545 6.11879 5.29277 6.22895 5.18295 6.33854L6.03064 7.18791C6.11639 7.10233 6.2123 7.01619 6.32937 6.90926C6.44092 6.80737 6.56754 6.69021 6.68793 6.56289C6.92398 6.31322 7.18688 5.97316 7.28196 5.52824L6.10846 5.27747ZM12.6838 13.3953C6.99964 13.3997 2.60026 8.96043 2.60471 3.31326L1.40471 3.31232C1.39974 9.61956 6.3337 14.6003 12.6847 14.5953L12.6838 13.3953ZM13.3996 12.7934C13.401 13.1318 13.0818 13.4287 12.7382 13.3977L12.6304 14.5929C13.6812 14.6877 14.6038 13.8313 14.5996 12.7885L13.3996 12.7934ZM2.60227 3.25868C2.57162 2.92018 2.86484 2.60038 3.20597 2.60006L3.20484 1.40006C2.16659 1.40103 1.31222 2.31841 1.40715 3.3669L2.60227 3.25868Z" fill="#056ECF"/>
</svg>
